<svg xmlns="http://www.w3.org/2000/svg">
<defs>
<font id="Vonique64-Bold" horiz-adv-x="110" >
  <font-face 
    font-family="Vonique 64"
    font-weight="700"
    font-stretch="normal"
    units-per-em="2048"
    panose-1="2 0 8 0 0 0 0 0 0 0"
    ascent="1638"
    descent="-410"
    x-height="1457"
    cap-height="1459"
    bbox="-1277 -959 2875 1959"
    underline-thickness="150"
    underline-position="-442"
    unicode-range="U+0020-F002"
  />
<missing-glyph horiz-adv-x="2600" 
d="M225 640v-89l-86 -54l109 -91l-159 -100l52 105l-121 100zM306 690v-88l-86 -54l109 -91l-160 -101l53 105l-121 100zM386 741v-89l-86 -54l110 -91l-160 -100l52 105l-121 100zM421 417v325h66v-96q10 11 24 17t28 6q80 0 80 -102v-150h-66v145q0 41 -33 41t-33 -41
v-145h-66zM713 498q8 -8 18 -13t22 -5t22 5t18 13t12 19q4 12 4 24t-4 23t-12 19q-8 9 -18 14q-10 4 -22 4t-22 -4q-10 -5 -18 -14q-8 -8 -12 -19q-5 -11 -5 -23t5 -24q4 -11 12 -19zM877 671v-254h-65v33h-2q-17 -33 -66 -33q-24 -1 -45 9q-22 10 -38 26q-16 17 -25 39
q-10 22 -9 47q-1 25 8 48t25 41t38 28q21 10 46 10q46 0 73 -29zM896 671h65v-41q6 17 13 27q7 11 15 16q9 5 22 7q12 2 28 2l-21 -76q-27 0 -38 -12t-11 -41v-136h-73v254zM1046 742h72v-185h1l53 113h87l-63 -124l76 -129h-89l-64 110h-1v-110h-72v325zM1300 495
q22 -22 52 -22q32 0 32 19q0 10 -18 15q-8 3 -19 5q-10 2 -21 6q-11 3 -20 8q-10 5 -17 14q-7 8 -11 21q-4 12 -4 29q0 19 7 34q8 14 20 24t28 15q16 4 35 4q21 0 42 -9q20 -9 36 -24l-39 -41q-17 14 -38 14q-24 0 -24 -14q0 -13 17 -18q14 -4 30 -7q17 -4 31 -12t24 -23
q9 -14 8 -40q0 -20 -7 -35q-8 -15 -21 -25t-30 -16q-17 -5 -35 -5q-15 0 -27 1q-13 2 -23 6q-11 4 -22 10q-11 7 -23 16zM1459 417v325h67v-96q9 11 23 17t28 6q81 0 81 -102v-150h-67v145q0 41 -33 41q-32 0 -32 -41v-145h-67zM1755 500q19 -18 41 -18q23 0 42 18
q18 16 18 42q0 12 -5 22q-5 11 -13 19t-19 13t-23 5t-22 -5q-11 -5 -19 -13t-13 -19q-5 -10 -5 -22q0 -25 18 -42zM1748 425q-24 9 -43 27q-18 17 -29 41q-11 23 -10 49q0 28 11 50q10 23 28 40t42 26q23 9 49 9t50 -9q23 -9 42 -26q18 -17 29 -40q10 -22 10 -50

<glyph glyph-name=".notdef" horiz-adv-x="2600" 
d="M225 640v-89l-86 -54l109 -91l-159 -100l52 105l-121 100zM306 690v-88l-86 -54l109 -91l-160 -101l53 105l-121 100zM386 741v-89l-86 -54l110 -91l-160 -100l52 105l-121 100zM421 417v325h66v-96q10 11 24 17t28 6q80 0 80 -102v-150h-66v145q0 41 -33 41t-33 -41
v-145h-66zM713 498q8 -8 18 -13t22 -5t22 5t18 13t12 19q4 12 4 24t-4 23t-12 19q-8 9 -18 14q-10 4 -22 4t-22 -4q-10 -5 -18 -14q-8 -8 -12 -19q-5 -11 -5 -23t5 -24q4 -11 12 -19zM877 671v-254h-65v33h-2q-17 -33 -66 -33q-24 -1 -45 9q-22 10 -38 26q-16 17 -25 39
q-10 22 -9 47q-1 25 8 48t25 41t38 28q21 10 46 10q46 0 73 -29zM896 671h65v-41q6 17 13 27q7 11 15 16q9 5 22 7q12 2 28 2l-21 -76q-27 0 -38 -12t-11 -41v-136h-73v254zM1046 742h72v-185h1l53 113h87l-63 -124l76 -129h-89l-64 110h-1v-110h-72v325zM1300 495
q22 -22 52 -22q32 0 32 19q0 10 -18 15q-8 3 -19 5q-10 2 -21 6q-11 3 -20 8q-10 5 -17 14q-7 8 -11 21q-4 12 -4 29q0 19 7 34q8 14 20 24t28 15q16 4 35 4q21 0 42 -9q20 -9 36 -24l-39 -41q-17 14 -38 14q-24 0 -24 -14q0 -13 17 -18q14 -4 30 -7q17 -4 31 -12t24 -23
q9 -14 8 -40q0 -20 -7 -35q-8 -15 -21 -25t-30 -16q-17 -5 -35 -5q-15 0 -27 1q-13 2 -23 6q-11 4 -22 10q-11 7 -23 16zM1459 417v325h67v-96q9 11 23 17t28 6q81 0 81 -102v-150h-67v145q0 41 -33 41q-32 0 -32 -41v-145h-67zM1755 500q19 -18 41 -18q23 0 42 18
q18 16 18 42q0 12 -5 22q-5 11 -13 19t-19 13t-23 5t-22 -5q-11 -5 -19 -13t-13 -19q-5 -10 -5 -22q0 -25 18 -42zM1748 425q-24 9 -43 27q-18 17 -29 41q-11 23 -10 49q0 28 11 50q10 23 28 40t42 26q23 9 49 9t50 -9q23 -9 42 -26q18 -17 29 -40q10 -22 10 -50
q0 -27 -10 -50q-11 -23 -29 -40q-19 -18 -42 -27q-24 -10 -50 -10q-24 0 -48 10zM2102 586q-23 17 -47 17q-25 0 -42 -17q-17 -16 -17 -42q0 -14 5 -26q4 -12 12 -22q7 -9 18 -14t25 -5q28 0 47 18v-72q-13 -7 -25 -9t-23 -2q-29 -1 -53 9q-25 10 -42 28q-18 17 -27 40
q-10 22 -9 46q0 29 9 54q10 25 28 42q18 18 42 27t52 9q28 3 47 -7v-74zM2122 742h72v-185h1l52 113h88l-64 -124l76 -129h-88l-64 110h-1v-110h-72v325zM2360 759q9 9 22 9t22 -9t9 -22t-9 -22t-22 -9t-22 9t-9 22t9 22zM2356 711q11 -11 26 -11t25 11q11 11 11 26t-11 25
q-10 11 -25 11t-26 -11q-10 -10 -10 -25t10 -26zM2371 740h11h6q2 1 3 3t1 3q0 3 -2 5t-6 2h-13v-13zM2365 717v40h18q6 0 8 -1q3 -1 5 -3q2 -3 2 -7t-3 -7t-9 -3q2 -2 4 -2l4 -6l7 -11h-7l-5 9q-2 3 -4 5q-1 2 -3 3q-1 1 -2 1h-3h-6v-18h-6zM1403 1369l1 1zM1286 1430
q-1 15 -1 29q-3 -11 -6 -21q4 -4 7 -8zM1487 1188q0 -30 -31 -90q-5 -25 -21 -41q-18 -43 -59 -89q-4 -6 -13 -14q-26 -28 -25 -26q-10 -15 -17 -28l-13 -31l-16 -26l-11 -12l-5 -10l-1 -1l-1 -2q-3 -4 -5 -4h-1l-1 1q-2 -2 -3 -2h-1q-1 1 -1 2q-2 -1 -3 -1h-1q-2 1 -2 5v3
l3 11l9 21q7 13 7 18v1q-2 5 -2 9q0 15 27 20l1 2v4q0 14 7 31q3 10 9 22q13 28 28 34q2 11 6 18q2 5 13 20q9 12 12 20q1 5 2 19q0 11 3 18v1q0 12 20 29l6 8q-7 2 -12 22l-3 18q-2 11 -3 16q-9 2 -17 13v-4q0 -20 -10 -20v0q-11 0 -25 18q0 -14 -8 -22q-6 -7 -15 -7v0
q-22 1 -22 31q-17 -21 -24 -21q-2 0 -4 2q-3 4 -6 40q-17 -21 -26 -21q-3 0 -5 2q-6 4 -6 20q0 7 2 17q-7 -7 -17 -7v0q-9 0 -16 6q-5 6 -5 12v2q2 8 14 14q-30 0 -38 8q5 6 16 7q13 1 17 4q4 1 8 6q-4 -2 -8 -2q-3 0 -5 2q-5 3 -5 13v3q-14 -19 -19 -19q-2 0 -2 3t2 14
q3 14 4 20q-25 -27 -25 -28q-1 2 -1 4q0 10 6 27q-20 -19 -28 -19q-5 0 -5 9q0 7 2 17q-13 -26 -25 -31v5q0 8 6 20q10 20 11 25q-6 -4 -16 -18q-9 -12 -16 -15v-1q2 0 7 42q-9 -9 -18 -9h-2q-9 1 -10 13q0 8 8 19q9 11 9 18q-18 -11 -25 -13q-5 -1 -9 -1q-7 0 -10 6
q-1 3 -1 7q0 8 9 18q10 12 22 14q-12 -2 -20 -2q-18 0 -19 11v2q0 9 12 15q3 2 11 5q6 2 9 4q-24 11 -24 17q0 1 1 2q2 1 35 12q-2 3 -8 7q-6 6 -9 8q-6 7 -6 13q0 3 1 6q2 1 5 1q8 0 18 -5t18 -5h3l-15 22q-4 7 -4 11q0 6 7 6h1q9 0 20 -13q14 -16 18 -18q-18 82 -23 82
l-1 -1q23 -12 49 -73q-10 31 -12 68q-1 6 -1 11q0 23 8 23q2 0 5 -1h-1v-1q0 -7 21 -58q3 -9 13 -35q10 -23 13 -36q-16 71 -16 115q0 51 21 65q10 -7 10 -31q0 -7 -1 -19t-1 -16q1 -15 6 -41q6 -30 7 -40q0 109 30 157q9 -4 9 -29q0 -14 -3 -35q-9 -67 -9 -74v-1q2 4 8 31
q8 32 14 51q20 61 37 61q2 0 3 -1q-1 -23 -20 -66q-19 -45 -22 -68q13 40 38 74q32 43 68 51q-1 -21 -60 -72q-35 -55 -35 -111v-13l1 -7q2 -13 8 -27q14 72 80 150q33 40 64 65h11q-42 -22 -78 -85q53 39 125 40l-3 -11q-122 -3 -147 -90q-7 -22 -7 -49q0 -39 15 -88
q4 -2 6 -4q11 -10 31 -58q0 8 8 15q8 6 16 6h2v-1l17 14q-11 -9 -14 -14h1q2 0 4 -1h1q7 4 7 9v-1q0 -3 -2 -6l6 4l-8 -6l1 -1l8 4l-7 -5h1q6 2 9 7q-2 -5 -7 -8l17 2q2 -1 2 -3v-1q-1 -2 -2 -2h-1h7t1 -1t-1 -3q3 0 3 -3v-3q6 0 8 -4v-2q0 -2 -3 -5q-6 -6 -6 -10v-1l4 -8
q3 -6 4 -9q5 -5 8 -9l1 1v-1q1 1 3 1q8 0 16 -10q10 -11 13 -28q1 -6 1 -12q0 -14 -6 -23q2 -12 2 -21v-2z" />
    <glyph glyph-name=".null" horiz-adv-x="0" 
 />
    <glyph glyph-name="nonmarkingreturn" horiz-adv-x="508" 
 />
    <glyph glyph-name="space" unicode=" " horiz-adv-x="508" 
 />
    <glyph glyph-name="space" unicode="&#xa0;" horiz-adv-x="508" 
 />
    <glyph glyph-name="exclam" unicode="!" horiz-adv-x="291" 
d="M190 240h-152v1224h152v-1224zM197 156q34 -34 34 -82q0 -47 -34 -81t-81 -34q-48 0 -82 34t-34 81q0 48 34 82t82 34q47 0 81 -34z" />
    <glyph glyph-name="quotedbl" unicode="&#x22;" horiz-adv-x="434" 
d="M158 966h-158v492h159zM373 966h-158v492h159z" />
    <glyph glyph-name="numbersign" unicode="#" horiz-adv-x="1110" 
d="M673 886h-244l-61 -253h245zM828 886l-61 -253h191v-149h-227l-110 -459h-155l111 459h-245l-110 -459h-155l111 459h-178v149h214l61 253h-183v149h218l87 359h154l-86 -359h244l87 359h154l-86 -359h186v-149h-222z" />
    <glyph glyph-name="dollar" unicode="$" horiz-adv-x="1104" 
d="M448 870q-58 9 -121 64q-11 9 -16 14q-89 88 -89 211t89 211q67 67 137 79v110h159v-113q63 -13 127 -76q87 -88 87 -236h-149q0 87 -44 130q-24 24 -21 23v-283q41 -5 102 -28q149 -56 241 -187q94 -132 94 -294q0 -214 -153 -364q-130 -128 -284 -145v-102h-159v100
q-159 14 -292 144q-152 148 -156 384h149q4 -173 112 -278q93 -89 187 -99v735zM448 1294q-4 -1 -32 -30q-44 -43 -44 -105q0 -61 44 -104q28 -29 32 -30v269zM607 854v-717q90 13 179 100q108 107 108 258q0 152 -108 259q-89 87 -179 100z" />
    <glyph glyph-name="percent" unicode="%" horiz-adv-x="1449" 
d="M469 150h-163l597 1141h162zM1290 673q99 -99 99 -238t-99 -238.5t-239 -99.5q-139 0 -238 99.5t-99 238.5t99 238t238 99q140 0 239 -99zM1054 638q-83 0 -141.5 -58.5t-58.5 -141.5t58.5 -142t141.5 -59q84 0 142.5 59t58.5 142t-58.5 141.5t-142.5 58.5zM576 1276.5
q99 -98.5 99 -238.5q0 -139 -99 -238.5t-239 -99.5q-139 0 -238 99.5t-99 238.5q0 140 99 238.5t238 98.5q140 0 239 -98.5zM340 1241q-83 0 -141.5 -58t-58.5 -142q0 -83 58.5 -141.5t141.5 -58.5t142 58.5t59 141.5q0 84 -59 142t-142 58z" />
    <glyph glyph-name="ampersand" unicode="&#x26;" horiz-adv-x="1407" 
d="M340 1241zM1371 877l-50 -74q-65 -109 -179 -156q12 -49 12 -118q0 -240 -169 -411q-169 -169 -408 -169t-408 169q-169 171 -169 411q0 158 81 295q78 131 190 197q-26 50 -26 131q0 138 97 237q98 98 235 98t235 -98q97 -99 97 -237q0 -46 -18 -109h-186q35 71 35 109
q0 68 -48 116q-47 48 -115 48q-67 0 -115 -48t-48 -116q0 -4 2 -15q19 -115 230 -160q-160 -32 -205.5 -57.5t-57.5 -32.5q-10 -5 -23 -12q-86 -56 -138 -145q-53 -94 -53 -201q0 -169 120 -289q119 -120 288 -120t288 120q120 120 120 289q0 48 -7 77h-24h-120
q-144 0 -228 -115h-189l43 71q133 206 374 206h120q131 0 224 109h153h40z" />
    <glyph glyph-name="quotesingle" unicode="'" horiz-adv-x="471" 
d="M173 1500h-171l270 459h179z" />
    <glyph glyph-name="parenleft" unicode="(" horiz-adv-x="525" 
d="M78 996q91 271 291 472l107 -106q-184 -185 -260 -425q-147 -459 260 -866l-107 -106q-273 274 -328 571q-41 226 37 460z" />
    <glyph glyph-name="parenright" unicode=")" horiz-adv-x="525" 
d="M435 536q-54 -297 -329 -571l-106 106q407 407 261 866q-77 240 -261 425l106 106q201 -200 292 -472q78 -234 37 -460z" />
    <glyph glyph-name="asterisk" unicode="*" horiz-adv-x="818" 
d="M758 1003h-195l137 -138l-107 -107l-138 137v-195h-152v195l-138 -138l-107 108l137 138h-195v152h195l-137 138l107 107l138 -137v195h152v-195l138 137l107 -107l-137 -138h195v-152z" />
    <glyph glyph-name="plus" unicode="+" horiz-adv-x="885" 
d="M489 685h336v-153h-336v-336h-153v336h-336v153h336v336h153v-336z" />
    <glyph glyph-name="comma" unicode="," horiz-adv-x="384" 
d="M171 -123h-171l184 306h179z" />
    <glyph glyph-name="hyphen" unicode="-" horiz-adv-x="885" 
d="M825 532h-825v153h825v-153z" />
    <glyph glyph-name="hyphen" unicode="&#xad;" horiz-adv-x="885" 
d="M825 532h-825v153h825v-153z" />
    <glyph glyph-name="period" unicode="." horiz-adv-x="291" 
d="M197 156q34 -34 34 -82q0 -47 -34 -81t-81 -34q-48 0 -82 34t-34 81q0 48 34 82t82 34q47 0 81 -34z" />
    <glyph glyph-name="slash" unicode="/" horiz-adv-x="960" 
d="M171 -25h-171l771 1482h171z" />
    <glyph glyph-name="zero" unicode="0" horiz-adv-x="1282" 
d="M159 719q0 -253 135 -431q132 -174 317 -174q186 0 318 174q135 178 135 431t-135 431q-132 174 -318 174q-185 0 -317 -174q-135 -178 -135 -431zM0 719q0 315 177 538q180 226 434 226q255 0 434 -226q177 -223 177 -538t-177 -538q-179 -226 -434 -226
q-254 0 -434 226q-177 223 -177 538z" />
    <glyph glyph-name="one" unicode="1" horiz-adv-x="312" 
d="M252 1455v-1480h-154v1327h-98v155h250v-2h2z" />
    <glyph glyph-name="two" unicode="2" horiz-adv-x="981" 
d="M939 129v-154h-939l654 1137q2 2 1 1q10 25 10 51q0 62 -43 105q-44 44 -107 44q-102 -13 -126.5 -91t8.5 -155h-178q-16 59 -16 98q0 8 2 23q9 120 98 203q91 83 212 83q129 0 221 -91q83 -74 90.5 -173t-47.5 -188l-506 -893h666z" />
    <glyph glyph-name="three" unicode="3" horiz-adv-x="1145" 
d="M929 875q160 -157 160 -381q0 -223 -160 -382q-160 -157 -386 -157q-203 0 -357 133q-152 131 -186 356h163q29 -152 135 -239q106 -88 245 -88q160 0 272 111q112 110 112 266q0 118 -70 216q-71 110 -215 185l-99 67l97 103q56 72 56 117q0 63 -45 106q-44 45 -108 45
q-7 0 -20 -2q-5 0 -14 -2q-5 -2 -12 -4q-2 0 -4 -1q-131 -52 -94 -189q3 -9 24 -52h-178q-16 60 -16 99q0 7 1 23q9 122 99 205q90 85 214 85q130 0 223 -91q92 -93 92 -222q0 -136 -62 -199q55 -32 133 -108z" />
    <glyph glyph-name="four" unicode="4" horiz-adv-x="1182" 
d="M809 1040l-421 -492h420zM1163 548v-164h-177v-409h-175v409h-811l3 2h16l967 1113v-951h177z" />
    <glyph glyph-name="five" unicode="5" horiz-adv-x="1236" 
d="M563 1123q271 0 445 -168q176 -168 176 -406q0 -239 -177 -407q-174 -167 -421 -167q-206 0 -367 122q-159 120 -219 339h162q51 -143 164 -222q116 -81 260 -81q183 0 313 123q127 122 127 293q0 172 -128 294q-130 122 -337 122v1h-297v28v0v435v0v28h506v-154h-352
v-180h145v0z" />
    <glyph glyph-name="six" unicode="6" horiz-adv-x="1346" 
d="M895 1459l-257 -235q42 8 197 -41q160 -50 275 -175q177 -194 165 -455t-205 -438t-455 -166q-261 11 -438 205q-177 193 -166 455q12 261 206 438l450 412h228zM965 228q144 131 152 326q10 195 -122 338q-132 144 -325 152q-196 9 -340 -122q-142 -132 -152 -326
q-8 -195 124 -339q131 -143 325 -152q196 -8 338 123z" />
    <glyph glyph-name="seven" unicode="7" horiz-adv-x="1168" 
d="M1131 1457l-93 -144l-854 -1338h-184l846 1327h-844v155h1129z" />
    <glyph glyph-name="eight" unicode="8" horiz-adv-x="1148" 
d="M544 108q159 0 270 111q113 110 113 265t-113 265q-111 110 -270 110t-270 -110q-112 -110 -112 -265q0 -156 112 -265q112 -111 270 -111zM544 1325q-63 0 -107 -44q-45 -43 -45 -106q0 -62 45 -106q44 -44 107 -44t107 44q45 44 45 106q0 63 -45 106q-44 44 -107 44z
M782 968q115 -44 209 -179q97 -137 97 -305q0 -222 -159 -380q-160 -158 -385 -158t-385 158q-159 158 -159 380t159 380q80 78 147 104q-75 67 -75 207q0 129 91 221q93 91 222 91q130 0 222 -91q92 -92 92 -221q0 -140 -76 -207z" />
    <glyph glyph-name="nine" unicode="9" horiz-adv-x="1346" 
d="M386 -25l257 235q-42 -7 -197 41q-160 50 -275 175q-177 194 -166 455q13 262 206 439t455 165q261 -11 438 -205q177 -192 165 -455q-11 -261 -205 -438l-450 -412h-228zM315 1206q-143 -131 -152 -325q-9 -196 123 -339t325 -152q196 -9 339 123t152 325
q9 195 -123 339q-131 143 -325 152q-196 9 -339 -123z" />
    <glyph glyph-name="colon" unicode=":" horiz-adv-x="291" 
d="M197 566q34 -34 34 -82q0 -47 -34 -81t-81 -34q-48 0 -82 34t-34 81q0 48 34 82t82 34q47 0 81 -34zM197 1031q34 -34 34 -82q0 -47 -34 -81t-81 -34q-48 0 -82 34t-34 81q0 48 34 82t82 34q47 0 81 -34z" />
    <glyph glyph-name="semicolon" unicode=";" horiz-adv-x="396" 
d="M321.5 1031q33.5 -34 33.5 -82q0 -47 -33.5 -81t-82.5 -34q-48 0 -82 34t-34 81q0 48 34 82t82 34q49 0 82.5 -34zM171 284h-171l184 306h179z" />
    <glyph glyph-name="semicolon" unicode="&#x37e;" horiz-adv-x="396" 
d="M321.5 1031q33.5 -34 33.5 -82q0 -47 -33.5 -81t-82.5 -34q-48 0 -82 34t-34 81q0 48 34 82t82 34q49 0 82.5 -34zM171 284h-171l184 306h179z" />
    <glyph glyph-name="less" unicode="&#x3c;" horiz-adv-x="1084" 
d="M1053 179l-1053 545l1053 546v-181q-86 -45 -398 -206q-281 -146 -305 -159q159 -82 703 -364v-181z" />
    <glyph glyph-name="equal" unicode="=" horiz-adv-x="885" 
d="M825 382h-825v153h825v-153zM825 662h-825v153h825v-153z" />
    <glyph glyph-name="greater" unicode="&#x3e;" horiz-adv-x="1084" 
d="M0 360q544 282 703 364q-25 13 -305 159q-313 161 -398 206v181l1053 -546l-1053 -545v181z" />
    <glyph glyph-name="question" unicode="?" horiz-adv-x="1285" 
d="M1044 1321q181 -172 181 -418q0 -227 -160 -396q-158 -167 -368 -187v-85h-158v240h48v0q213 0 345 126t132 302t-131 302q-132 126 -321 126q-187 0 -320 -125q-131 -126 -131 -326h-161v27v1q0 239 180 412q179 172 432 172t432 -171zM700 156q34 -34 34 -82
q0 -47 -34 -81t-82 -34t-82 34t-34 81q0 48 34 82t82 34t82 -34z" />
    <glyph glyph-name="at" unicode="@" horiz-adv-x="1620" 
d="M779 390q121 0 205 85q85 84 85 205q0 120 -85 204q-84 86 -205 86q-120 0 -204 -86q-85 -84 -85 -204q0 -121 85 -205q84 -85 204 -85zM779 1481q323 0 552 -228q228 -229 228 -551v-5q1 -270 -108 -380q-55 -54 -131 -54q-41 2 -86 28q-86 48 -110 111
q-33 -52 -130 -106q-99 -56 -215 -56q-181 0 -311 129q-128 129 -128 311q0 181 128 311q130 128 311 128q212 0 338 -158h102v-281q0 -157 53 -227q27 -35 55 -40q8 0 17 10q65 64 65 273v6q0 260 -185 444q-184 185 -445 185q-260 0 -444 -185q-185 -184 -185 -444
q0 -202 117 -366q118 -165 332 -238l-48 -142q-261 89 -405 292q-146 204 -146 454q0 322 228 551q229 228 551 228z" />
    <glyph glyph-name="A" unicode="A" horiz-adv-x="1631" 
d="M1593 -25h-184l-612 1157l-607 -1157h-189l700 1331v1l97 181l90 -171z" />
    <glyph glyph-name="B" unicode="B" horiz-adv-x="1213" 
d="M588 128q109 1 211 51q196 98 196 338t-196 338q-103 51 -211 51h-434v-778h434zM154 1302v-242h471q101 0 141 54q23 30 24 66q0 73 -73 104q-43 18 -93 18h-470zM875 990q278 -112 278 -473q0 -336 -282 -472q-143 -70 -283 -70h-484v0h-104v1485h624q112 0 201 -56
q124 -75 124 -224q0 -141 -74 -190z" />
    <glyph glyph-name="C" unicode="C" horiz-adv-x="1536" 
d="M1511 540q-76 -272 -280 -429q-205 -159 -467 -159q-317 0 -543 224q-224 226 -224 543q0 316 224 542q226 224 543 224q266 0 473 -164q206 -161 277 -439h-163q-62 204 -220 325q-162 122 -367 122q-254 0 -432 -179q-179 -178 -179 -431q0 -254 179 -432
q178 -179 432 -179q200 0 360 118q158 115 224 314h163z" />
    <glyph glyph-name="D" unicode="D" horiz-adv-x="1443" 
d="M1067 291q158 148 158 425q0 278 -158 426q-117 109 -311 143q-102 19 -176 13h-3h-422v-1164h424q320 0 488 157zM1174 1257q209 -194 209 -541t-209 -541q-147 -137 -378 -182q-121 -23 -223 -17h-468v0h-105l1 1481h214l359 -1q142 0 233 -17q220 -44 367 -182z" />
    <glyph glyph-name="E" unicode="E" horiz-adv-x="1206" 
d="M1142 383h-868v155h868v-155zM1146 1303h-987v-1172h987v-156h-1146v1485h1146v-157z" />
    <glyph glyph-name="F" unicode="F" horiz-adv-x="1206" 
d="M1142 383h-868v155h868v-155zM1146 1303h-987v-1327l-159 -1v1485h1146v-157z" />
    <glyph glyph-name="G" unicode="G" horiz-adv-x="1575" 
d="M1515 529q-86 -270 -286 -422q-206 -155 -460 -155q-318 0 -544 225q-225 226 -225 544t225 544q226 225 544 225q267 0 475 -164q206 -163 278 -446h-168q-64 206 -222 325q-160 121 -363 121q-251 0 -427 -177q-178 -177 -178 -428t178 -427q176 -178 427 -178
q159 0 299 82q135 78 194 173h-768v158h1021z" />
    <glyph glyph-name="H" unicode="H" horiz-adv-x="1307" 
d="M1247 1459v-1484h-155v408h-937v-408h-155v1484h155v-922h937v922h155z" />
    <glyph glyph-name="I" unicode="I" horiz-adv-x="215" 
d="M155 -25h-155v1484h155v-1484z" />
    <glyph glyph-name="J" unicode="J" horiz-adv-x="224" 
d="M161 1459v-1692q0 -301 -213 -515q-212 -211 -512 -211q-250 0 -447 152q-192 150 -266 372h166q62 -145 210 -253q150 -111 337 -111q233 0 399 166q166 164 166 400v1692h160z" />
    <glyph glyph-name="K" unicode="K" horiz-adv-x="1476" 
d="M155 -30h-155v1488h155v-1488zM485 520l966 -966h-218l-966 966l945 942h220z" />
    <glyph glyph-name="L" unicode="L" horiz-adv-x="1201" 
d="M1141 130v-155h-1141v1483h155v-1328h986z" />
    <glyph glyph-name="M" unicode="M" horiz-adv-x="1416" 
d="M1355 1530l2 -1555h-161v915l-521 -942l-516 932v-905h-159v1557l681 -1221z" />
    <glyph glyph-name="N" unicode="N" horiz-adv-x="1406" 
d="M1346 1458v-1483h-36l-112 110l-1043 1035v-1145h-155v1518l148 -147l1043 -1035v1147h155z" />
    <glyph glyph-name="O" unicode="O" horiz-adv-x="1584" 
d="M762 112q252 0 430 178t178 430t-178 430t-430 178t-430 -178t-178 -430t178 -430t430 -178zM762 1482q315 0 539 -223q223 -224 223 -539t-223 -539q-224 -223 -539 -223t-539 223q-223 224 -223 539t223 539q224 223 539 223z" />
    <glyph glyph-name="P" unicode="P" horiz-adv-x="1104" 
d="M478 1458q141 0 283 -70q283 -137 283 -473q0 -337 -283 -474q-142 -69 -283 -69h-323v-397h-155v1483h478zM155 1304v-779h323q108 1 211 52q196 97 196 338t-195 338q-104 51 -212 51h-323z" />
    <glyph glyph-name="Q" unicode="Q" horiz-adv-x="1608" 
d="M369 35l36 -54q18 -29 54 -58q72 -54 164 -54h287q147 0 261 -89q59 -46 89 -96l33 -54l-76 -47l-54 -33l-34 54q-18 28 -55 56q-71 54 -164 54h-287q-147 0 -260 89q-60 47 -90 96l-33 56l77 45zM762 112q252 0 430 178t178 430t-178 430t-430 178t-430 -178t-178 -430
t178 -430t430 -178zM762 1482q315 0 539 -223q223 -224 223 -539t-223 -539q-224 -223 -539 -223t-539 223q-223 224 -223 539t223 539q224 223 539 223z" />
    <glyph glyph-name="R" unicode="R" horiz-adv-x="1106" 
d="M1046 914q0 -284 -205 -428q-128 -90 -255 -105l419 -406h-227l-416 403l-148 147h267q108 0 212 51q195 97 195 338t-195 338q-103 51 -212 51h-326v-1328h-155v1482h105v0h376q141 0 283 -70q282 -137 282 -473z" />
    <glyph glyph-name="S" unicode="S" horiz-adv-x="1143" 
d="M735 984q155 -58 250 -194q98 -137 98 -305q0 -222 -159 -377q-159 -157 -383 -157q-222 0 -379 154q-158 153 -162 397h153q4 -179 117 -288q113 -110 271 -110q161 0 275 113q113 111 113 268q0 159 -113 270q-114 113 -275 113q-115 0 -202 74q-12 11 -16 15
q-92 91 -92 218q0 128 92 219q90 90 218 90q237 -1 339 -286l-186 1q-6 41 -42 86q-46 46 -111 46q-64 0 -110 -46q-46 -45 -46 -110q0 -63 46 -108q46 -46 110 -46q100 0 194 -37z" />
    <glyph glyph-name="T" unicode="T" horiz-adv-x="1189" 
d="M1129 1302h-488v-1327h-155v1327h-486v155h1129v-155z" />
    <glyph glyph-name="U" unicode="U" horiz-adv-x="1418" 
d="M1358 731q-4 -314 -201 -536q-199 -223 -478 -223q-280 0 -479 224q-197 222 -200 537v727h151v-727q3 -248 158 -423q154 -174 370 -174t369 173q155 174 159 422v0v729h151v-729z" />
    <glyph glyph-name="V" unicode="V" horiz-adv-x="1613" 
d="M0 1460h183l612 -1158l608 1158h190l-701 -1333v-1l-97 -181l-90 171z" />
    <glyph glyph-name="W" unicode="W" horiz-adv-x="1941" 
d="M1128 -48l-168 318l-168 -319l-792 1507h178l614 -1169l79 150l-536 1019h178l447 -850l446 850h177l-534 -1019l79 -150l613 1169h178z" />
    <glyph glyph-name="X" unicode="X" horiz-adv-x="1340" 
d="M749 459l274 -484h-182l-183 324l-183 -324h-183l275 484l-567 1000h181l477 -839l475 839h183z" />
    <glyph glyph-name="Y" unicode="Y" horiz-adv-x="1248" 
d="M533 444l-533 1015h172l438 -845l440 845h171l-533 -1015v-469h-155v469z" />
    <glyph glyph-name="Z" unicode="Z" horiz-adv-x="1195" 
d="M294 130h853v-155h-1147l878 1327h-864v155h1156z" />
    <glyph glyph-name="bracketleft" unicode="[" horiz-adv-x="303" 
d="M0 1457h148v-2h95v-155h-95v-1170h95v-155h-243v1482z" />
    <glyph glyph-name="backslash" unicode="\" horiz-adv-x="960" 
d="M0 1457h171l771 -1482h-171z" />
    <glyph glyph-name="bracketright" unicode="]" horiz-adv-x="303" 
d="M243 -25h-243v155h95v1170h-95v155h95v2h148v-1482z" />
    <glyph glyph-name="asciicircum" unicode="^" horiz-adv-x="539" 
d="M0 1001l256 494l255 -494h-164l-89 194l-94 -194h-164z" />
    <glyph glyph-name="underscore" unicode="_" horiz-adv-x="885" 
d="M825 -128h-825v153h825v-153z" />
    <glyph glyph-name="grave" unicode="`" horiz-adv-x="471" 
d="M-48 1959h179l270 -459h-171z" />
    <glyph glyph-name="a" unicode="a" horiz-adv-x="1584" 
d="M762 112q252 0 430 178t178 430t-178 430t-430 178t-430 -178t-178 -430t178 -430t430 -178zM1375 257q-2 -3 -74 -76q-224 -223 -539 -223t-539 223q-223 224 -223 539t223 539q224 223 539 223t539 -223q223 -224 223 -539v-743h-149v280z" />
    <glyph glyph-name="b" unicode="b" horiz-adv-x="1213" 
d="M588 128q109 1 211 51q196 98 196 338t-196 338q-103 51 -211 51h-434v-778h434zM154 1302v-242h471q101 0 141 54q23 30 24 66q0 73 -73 104q-43 18 -93 18h-470zM875 990q278 -112 278 -473q0 -336 -282 -472q-143 -70 -283 -70h-484v0h-104v1485h624q112 0 201 -56
q124 -75 124 -224q0 -141 -74 -190z" />
    <glyph glyph-name="c" unicode="c" horiz-adv-x="1536" 
d="M1511 540q-76 -272 -280 -429q-205 -159 -467 -159q-317 0 -543 224q-224 226 -224 543q0 316 224 542q226 224 543 224q266 0 473 -164q206 -161 277 -439h-163q-62 204 -220 325q-162 122 -367 122q-254 0 -432 -179q-179 -178 -179 -431q0 -254 179 -432
q178 -179 432 -179q200 0 360 118q158 115 224 314h163z" />
    <glyph glyph-name="d" unicode="d" horiz-adv-x="1443" 
d="M1067 291q158 148 158 425q0 278 -158 426q-117 109 -311 143q-102 19 -176 13h-3h-422v-1164h424q320 0 488 157zM1174 1257q209 -194 209 -541t-209 -541q-147 -137 -378 -182q-121 -23 -223 -17h-468v0h-105l1 1481h214l359 -1q142 0 233 -17q220 -44 367 -182z" />
    <glyph glyph-name="e" unicode="e" horiz-adv-x="1581" 
d="M193 909q-38 -96 -38 -190q7 -245 180 -419q174 -173 419 -179q193 6 349 120q153 112 218 308h168q-76 -273 -276 -427q-202 -157 -459 -157q-312 0 -534 220q-220 222 -220 534q0 311 220 533q222 220 534 220q261 0 465 -161q202 -159 265 -401zM1244 1057
q-39 73 -148 152q-152 108 -342 108q-237 0 -405 -159q-67 -63 -87 -101h982z" />
    <glyph glyph-name="f" unicode="f" horiz-adv-x="1201" 
d="M155 382v-407h-155v1482h1141v-155h-1v-2h-985v-763h986v-155h-986z" />
    <glyph glyph-name="g" unicode="g" horiz-adv-x="1687" 
d="M1622 367h-171q-90 -181 -273 -299q-189 -121 -411 -121q-319 0 -545 225q-225 226 -225 545q0 318 225 544q226 225 545 225q267 0 475 -164q206 -163 278 -443h-165q-64 206 -222 325q-163 122 -366 122q-252 0 -431 -179q-178 -178 -178 -430q0 -253 178 -431
q179 -178 431 -178q191 0 351 113q154 111 228 301l276 2v-157z" />
    <glyph glyph-name="h" unicode="h" horiz-adv-x="1307" 
d="M1247 1459v-1484h-155v408h-937v-408h-155v1484h155v-922h937v922h155z" />
    <glyph glyph-name="i" unicode="i" horiz-adv-x="215" 
d="M155 -25h-155v1484h155v-1484z" />
    <glyph glyph-name="j" unicode="j" horiz-adv-x="821" 
d="M761 1457v-741q0 -305 -215 -523q-216 -216 -546 -218v163q263 2 430 171q168 168 168 407v0v741h163z" />
    <glyph glyph-name="k" unicode="k" horiz-adv-x="1286" 
d="M313 454l510 -480h-229l-388 366l-1 -1l-51 47v-411h-154v1484h154v-946l889 946h216z" />
    <glyph glyph-name="l" unicode="l" horiz-adv-x="1201" 
d="M1141 130v-155h-1141v1483h155v-1328h986z" />
    <glyph glyph-name="m" unicode="m" horiz-adv-x="1416" 
d="M1355 1530l2 -1555h-161v915l-521 -942l-516 932v-905h-159v1557l681 -1221z" />
    <glyph glyph-name="n" unicode="n" horiz-adv-x="1418" 
d="M0 701q4 314 201 536q199 223 478 223q280 0 479 -224q197 -222 200 -537v-727h-151v727q-3 248 -158 423q-154 174 -370 174t-369 -173q-155 -174 -157 -453l-2 -698h-151v729z" />
    <glyph glyph-name="o" unicode="o" horiz-adv-x="1584" 
d="M762 112q252 0 430 178t178 430t-178 430t-430 178t-430 -178t-178 -430t178 -430t430 -178zM762 1482q315 0 539 -223q223 -224 223 -539t-223 -539q-224 -223 -539 -223t-539 223q-223 224 -223 539t223 539q224 223 539 223z" />
    <glyph glyph-name="p" unicode="p" horiz-adv-x="1104" 
d="M478 1458q141 0 283 -70q283 -137 283 -473q0 -337 -283 -474q-142 -69 -283 -69h-323v-397h-155v1483h478zM155 1304v-779h323q108 1 211 52q196 97 196 338t-195 338q-104 51 -212 51h-323z" />
    <glyph glyph-name="q" unicode="q" horiz-adv-x="1609" 
d="M758 125q250 0 427 177t177 428q0 249 -177 426t-427 177t-427 -177t-177 -426q0 -251 177 -428t427 -177zM1226 128h274v-156h-742q-314 0 -536 222t-222 536q0 313 222 535t536 222q313 0 535 -222t222 -535q0 -314 -222 -536q-66 -66 -67 -66z" />
    <glyph glyph-name="r" unicode="r" horiz-adv-x="1106" 
d="M481 525q108 0 212 51q195 97 195 338t-195 338q-103 51 -212 51h-326v-778h326zM1046 914q0 -284 -205 -428q-128 -90 -255 -105l419 -406h-227l-408 396h-215v-396h-155v1482h481q141 0 283 -70q282 -137 282 -473z" />
    <glyph glyph-name="s" unicode="s" horiz-adv-x="1143" 
d="M735 984q155 -58 250 -194q98 -137 98 -305q0 -222 -159 -377q-159 -157 -383 -157q-222 0 -379 154q-158 153 -162 397h153q4 -179 117 -288q113 -110 271 -110q161 0 275 113q113 111 113 268q0 159 -113 270q-114 113 -275 113q-115 0 -202 74q-12 11 -16 15
q-92 91 -92 218q0 128 92 219q90 90 218 90q237 -1 339 -286l-186 1q-6 41 -42 86q-46 46 -111 46q-64 0 -110 -46q-46 -45 -46 -110q0 -63 46 -108q46 -46 110 -46q100 0 194 -37z" />
    <glyph glyph-name="t" unicode="t" horiz-adv-x="1189" 
d="M1129 1302h-488v-1327h-155v1327h-486v155h1129v-155z" />
    <glyph glyph-name="u" unicode="u" horiz-adv-x="1418" 
d="M1358 731q-4 -314 -201 -536q-199 -223 -478 -223q-280 0 -479 224q-197 222 -200 537v727h151v-727q3 -248 158 -423q154 -174 370 -174t369 173q155 174 159 422v0v729h151v-729z" />
    <glyph glyph-name="v" unicode="v" horiz-adv-x="1613" 
d="M0 1459h181l613 -1159l608 1159h187l-699 -1332v-1l-97 -179l-89 170z" />
    <glyph glyph-name="w" unicode="w" horiz-adv-x="1960" 
d="M1165 -1v-1l-26 -52l-76 142l-97 184l-144 -273v-1l-26 -52l-76 142l-720 1371h161l634 -1205l97 184l74 142l75 -142l97 -184l633 1205h162z" />
    <glyph glyph-name="x" unicode="x" horiz-adv-x="1340" 
d="M749 459l274 -484h-182l-183 324l-183 -324h-183l275 484l-567 1000h181l477 -839l475 839h183z" />
    <glyph glyph-name="y" unicode="y" horiz-adv-x="1315" 
d="M1258 1461v-1203v-163q-3 -289 -185 -495q-185 -206 -442 -206q-211 0 -380 146q-169 144 -224 374l-12 42h161l7 -25q49 -167 173 -269q123 -101 275 -101q190 0 330 156q139 157 142 378l-2 163v-51q-34 -60 -172 -145q-139 -85 -298 -85q-259 0 -443 207
q-182 206 -185 496v781h155l-1 -780q-4 -192 136 -384q145 -162 338 -162q183 0 328 144q138 154 142 364v819z" />
    <glyph glyph-name="z" unicode="z" horiz-adv-x="1195" 
d="M294 130h853v-155h-1147l878 1327h-864v155h1156z" />
    <glyph glyph-name="braceleft" unicode="{" horiz-adv-x="467" 
d="M263 101q1 -6 27 -21q47 -28 139 -39v-152q-212 48 -277 125q-20 22 -34 81v500q0 48 -118 123q118 75 118 123v502q1 51 45 97q71 74 266 105v-149q-92 -12 -139 -40q-26 -15 -27 -21v-494q0 -91 -51 -123q51 -32 51 -123v-494z" />
    <glyph glyph-name="bar" unicode="|" horiz-adv-x="215" 
d="M155 -448h-155v2185h155v-2185z" />
    <glyph glyph-name="braceright" unicode="}" horiz-adv-x="467" 
d="M167 595q0 91 51 123q-51 32 -51 123v494q-2 6 -29 21q-46 28 -138 40v149q194 -31 266 -105q44 -46 45 -97v-502q0 -48 118 -123q-118 -75 -118 -123v-500q-14 -59 -34 -81q-65 -77 -277 -125v152q92 11 138 39q27 15 29 21v494z" />
    <glyph glyph-name="asciitilde" unicode="~" horiz-adv-x="1143" 
d="M0 569q116 215 325 215q163 0 285 -133q84 -90 187 -90q97 11 143 72l177 1q-116 -215 -325 -215q-163 0 -285 134q-86 89 -186 89q-113 -2 -130 -73h-191z" />
    <glyph glyph-name="exclamdown" unicode="&#xa1;" horiz-adv-x="291" 
d="M41 1199h152v-1224h-152v1224zM34 1283q-34 34 -34 82q0 47 34 81t81 34q48 0 82 -34t34 -81q0 -48 -34 -82t-82 -34q-47 0 -81 34z" />
    <glyph glyph-name="cent" unicode="&#xa2;" horiz-adv-x="1050" 
d="M251 427l315 607q-15 4 -65 4q-148 0 -252 -104t-104 -251q0 -148 103 -252q14 -12 3 -4zM371 349q47 -22 130 -22q116 0 209 69q92 67 136 200h150q-57 -208 -190 -310q-134 -104 -305 -104q-119 0 -196 38l-128 -245h-161l166 320q-11 8 -36 33q-146 148 -146 355
q0 206 146 354q148 146 355 146q81 0 135 -18l151 292h161l-182 -349q13 -7 45 -32q133 -106 186 -316h-148q-43 137 -135 207q-18 14 -14 12z" />
    <glyph glyph-name="sterling" unicode="&#xa3;" horiz-adv-x="1142" 
d="M385 625q-10 19 -2 5q49 -97 26 -169q-7 -21 -160 -340h753v-146h-959q38 220 131 380q68 117 76 136q10 29 -8 66q-15 27 -41 68h-201v139h117q-13 23 -26 67q-35 122 15 256q68 185 191 286q126 103 285 102q147 -1 274 -88q129 -88 175 -219q54 -157 -48 -305h-230
q168 137 127 253q-28 83 -115 140q-88 59 -184 60q-107 1 -190 -70q-85 -74 -137 -214q-32 -86 -10 -158q13 -41 56 -110h203v-139h-118z" />
    <glyph glyph-name="currency" unicode="&#xa4;" horiz-adv-x="731" 
d="M91 921l-91 90l108 108l93 -92q51 35 138 35q94 0 148 -39l96 96l109 -108l-99 -98q34 -53 34 -140q2 -87 -33 -140l98 -97l-109 -108l-95 96q-56 -39 -149 -39q-87 0 -138 35l-93 -92l-108 108l91 90q-40 55 -40 148q0 92 40 147zM254 870q-39 -38 -39 -91.5t39 -91.5
q38 -38 91.5 -38t91.5 38q37 38 37 91.5t-37 91.5q-38 38 -91.5 38t-91.5 -38z" />
    <glyph glyph-name="yen" unicode="&#xa5;" horiz-adv-x="1248" 
d="M461 581l-461 878h172l438 -845l440 845h171l-460 -878h177v-153h-259l9 14v-81h250v-153h-250v-233h-155v233h-258v153h258v81l10 -14h-268v153h186z" />
    <glyph glyph-name="brokenbar" unicode="&#xa6;" 
 />
    <glyph glyph-name="section" unicode="&#xa7;" horiz-adv-x="925" 
d="M715 653q-1 -1 -1 53q0 119 -86 203q-85 85 -206 85q-12 0 -21 1q-34 -5 -60 -32q-34 -33 -34 -80q0 -46 34 -79q33 -34 81 -34q78 0 151 -29q88 -33 142 -88zM252 1064zM252 1064q0 1 -1 1q-73 73 -73 174q0 100 71 172q72 71 173 71q244 0 244 -243v-26h-129v26
q0 113 -115 113q-48 0 -81 -34q-34 -33 -34 -79q0 -47 34 -80q26 -27 59 -32l21 1q129 0 198 -52q247 -126 225 -370q-14 -140 -36 -183q36 -74 36 -168q0 -172 -124 -295q-124 -122 -298 -122q-173 0 -296 120t-126 316h128q4 -141 89 -224q85 -82 205 -82q121 0 206 84
q86 84 86 203t-86 203q-85 85 -206 85q-90 0 -159 58q-9 8 -14 12q-71 72 -71 172q0 101 74 179z" />
    <glyph glyph-name="dieresis" unicode="&#xa8;" horiz-adv-x="548" 
d="M197 1655q34 -34 34 -82q0 -47 -34 -81t-81 -34q-48 0 -82 34t-34 81q0 48 34 82t82 34q47 0 81 -34zM454 1655q34 -34 34 -82q0 -47 -34 -81t-81 -34q-48 0 -82 34t-34 81q0 48 34 82t82 34q47 0 81 -34z" />
    <glyph glyph-name="copyright" unicode="&#xa9;" horiz-adv-x="1551" 
d="M1235 654q-57 -206 -185 -304q-130 -101 -295 -101q-199 0 -342 141q-141 142 -141 342t141 342q143 141 342 141q168 0 298 -103q130 -102 183 -310h-153q-40 132 -127 198q-88 67 -201 67q-139 0 -237 -98t-98 -237t98 -237t237 -98q110 0 198 65q87 63 129 192h153z
M1272.5 1243.5q218.5 -218.5 218.5 -527.5q0 -308 -218.5 -526.5t-527.5 -218.5q-308 0 -526.5 218.5t-218.5 526.5q0 309 218.5 527.5t526.5 218.5q309 0 527.5 -218.5zM751 1310q-244 0 -416.5 -172.5t-172.5 -417.5q0 -244 172.5 -416.5t416.5 -172.5q245 0 417.5 172.5
t172.5 416.5q0 245 -172.5 417.5t-417.5 172.5z" />
    <glyph glyph-name="ordfeminine" unicode="&#xaa;" 
 />
    <glyph glyph-name="guillemotleft" unicode="&#xab;" horiz-adv-x="1172" 
d="M761 344l-761 394l761 395v-171q-69 -36 -272 -141q-183 -95 -159 -82q64 -33 431 -223v-172zM1141 344l-761 394l761 395v-171q-69 -36 -272 -141q-183 -95 -159 -82q64 -33 431 -223v-172z" />
    <glyph glyph-name="logicalnot" unicode="&#xac;" 
 />
    <glyph glyph-name="registered" unicode="&#xae;" horiz-adv-x="1551" 
d="M1272.5 1233.5q218.5 -218.5 218.5 -527.5q0 -308 -218.5 -526.5t-527.5 -218.5q-308 0 -526.5 218.5t-218.5 526.5q0 309 218.5 527.5t526.5 218.5q309 0 527.5 -218.5zM751 1300q-244 0 -416.5 -172.5t-172.5 -417.5q0 -244 172.5 -416.5t416.5 -172.5
q245 0 417.5 172.5t172.5 416.5q0 245 -172.5 417.5t-417.5 172.5zM766 632q57 0 112 27q98 49 98 173t-98 173q-55 27 -112 27h-163v-400h163zM1119 832q0 -178 -130 -268q-79 -56 -106 -59l250 -242h-205l-236 229h-89v-229h-141v909h304q88 0 175 -43q178 -86 178 -297z
" />
    <glyph glyph-name="macron" unicode="&#xaf;" horiz-adv-x="1045" 
d="M985 1305h-985v153h985v-153z" />
    <glyph glyph-name="degree" unicode="&#xb0;" horiz-adv-x="448" 
d="M331 1406q57 -57 57 -137t-57 -137t-137 -57t-137 57t-57 137t57 137t137 57t137 -57zM194 1307q-14 0 -24 -10t-10 -24q0 -15 9.5 -24.5t24.5 -9.5q14 0 24 10t10 24t-10 24t-24 10z" />
    <glyph glyph-name="plusminus" unicode="&#xb1;" 
 />
    <glyph glyph-name="uni00B2" unicode="&#xb2;" 
 />
    <glyph glyph-name="uni00B3" unicode="&#xb3;" 
 />
    <glyph glyph-name="acute" unicode="&#xb4;" horiz-adv-x="471" 
d="M173 1500h-171l270 459h179z" />
    <glyph glyph-name="mu" unicode="&#xb5;" horiz-adv-x="1412" 
d="M150 654q23 -197 154 -346q155 -175 372 -175t371 174q156 176 160 425v727h145v-727q-4 -313 -200 -535q-198 -222 -476 -222q-279 0 -477 223q-55 63 -49 52v-486h-150v1696h150v-806z" />
    <glyph glyph-name="paragraph" unicode="&#xb6;" horiz-adv-x="730" 
d="M396 880v-496h-152v512q-65 15 -132 67q-112 85 -112 207q0 121 110 205.5t287 84.5v-1h273v-140h-74v-935h-152v935h-47v-439h-1z" />
    <glyph glyph-name="periodcentered" unicode="&#xb7;" horiz-adv-x="291" 
d="M197 777q34 -34 34 -82q0 -47 -34 -81t-81 -34q-48 0 -82 34t-34 81q0 48 34 82t82 34q47 0 81 -34z" />
    <glyph glyph-name="periodcentered" unicode="&#x2219;" horiz-adv-x="291" 
d="M197 777q34 -34 34 -82q0 -47 -34 -81t-81 -34q-48 0 -82 34t-34 81q0 48 34 82t82 34q47 0 81 -34z" />
    <glyph glyph-name="cedilla" unicode="&#xb8;" horiz-adv-x="400" 
d="M31 -287q53 0 86 18.5t33 36.5t-33 36.5t-86 18.5h-31v203h156v-62q67 -13 124 -67q60 -57 60 -132q0 -88 -82 -150q-79 -59 -189 -59q-23 0 -69 6v151h31z" />
    <glyph glyph-name="uni00B9" unicode="&#xb9;" 
 />
    <glyph glyph-name="ordmasculine" unicode="&#xba;" 
 />
    <glyph glyph-name="guillemotright" unicode="&#xbb;" horiz-adv-x="1172" 
d="M380 516q368 190 432 223q23 -13 -160 82q-202 105 -272 141v171l761 -395l-761 -394v172zM0 516q368 190 432 223q23 -13 -160 82q-202 105 -272 141v171l761 -395l-761 -394v172z" />
    <glyph glyph-name="onequarter" unicode="&#xbc;" 
 />
    <glyph glyph-name="onehalf" unicode="&#xbd;" 
 />
    <glyph glyph-name="threequarters" unicode="&#xbe;" 
 />
    <glyph glyph-name="questiondown" unicode="&#xbf;" horiz-adv-x="1285" 
d="M181 128q-181 172 -181 418q0 227 160 396q158 167 368 187v85h158v-240h-98v0q-163 0 -295 -126t-132 -302t131 -302q132 -126 321 -126q187 0 320 125q131 126 131 298v1v27h161v-27v0q0 -240 -180 -413q-179 -172 -432 -172t-432 171zM693 1499q34 -34 34 -82
q0 -47 -34 -81t-82 -34t-82 34t-34 81q0 48 34 82t82 34t82 -34z" />
    <glyph glyph-name="Agrave" unicode="&#xc0;" horiz-adv-x="1615" 
d="M1132 536l-338 643l-338 -643h676zM1213 381h-839l-213 -406h-161l716 1363v1l79 147l74 -142l719 -1369h-162zM412 1817h180l184 -306h-171z" />
    <glyph glyph-name="Aacute" unicode="&#xc1;" horiz-adv-x="1615" 
d="M1132 536l-338 643l-338 -643h676zM1213 381h-839l-213 -406h-161l716 1363v1l79 147l74 -142l719 -1369h-162zM977 1516h-171l184 306h180z" />
    <glyph glyph-name="Acircumflex" unicode="&#xc2;" horiz-adv-x="1615" 
d="M592 1485l202 321l203 -321h-162l-40 71l-41 -71h-162zM1132 536l-338 643l-338 -643h676zM1213 381h-839l-213 -406h-161l716 1363v1l79 147l74 -142l719 -1369h-162z" />
    <glyph glyph-name="Atilde" unicode="&#xc3;" horiz-adv-x="1615" 
d="M1132 536l-338 643l-338 -643h676zM1213 381h-839l-213 -406h-161l716 1363v1l79 147l74 -142l719 -1369h-162zM424 1594q98 179 233 179q105 0 184 -85q39 -43 85 -43q42 5 70 42h161q-96 -179 -232 -179q-106 0 -184 86q-40 42 -85 42q-44 -1 -54 -42h-178z" />
    <glyph glyph-name="Adieresis" unicode="&#xc4;" horiz-adv-x="1615" 
d="M1132 536l-338 643l-338 -643h676zM1213 381h-839l-213 -406h-161l716 1363v1l79 147l74 -142l719 -1369h-162zM751.5 1655q33.5 -34 33.5 -82q0 -47 -33.5 -81t-81.5 -34t-82 34t-34 81q0 48 34 82t82 34t81.5 -34zM1008.5 1655q33.5 -34 33.5 -82q0 -47 -33.5 -81
t-81.5 -34t-82 34t-34 81q0 48 34 82t82 34t81.5 -34z" />
    <glyph glyph-name="Aring" unicode="&#xc5;" horiz-adv-x="1615" 
d="M1132 536l-338 643l-338 -643h676zM1213 381h-839l-213 -406h-161l716 1363v1l79 147l74 -142l719 -1369h-162zM888.5 1695q40.5 -41 40.5 -98t-40.5 -97.5t-98.5 -40.5q-57 0 -97.5 40.5t-40.5 97.5t40.5 98t97.5 41q58 0 98.5 -41zM790 1614q-5 0 -9.5 -4t-4.5 -10
q0 -7 4.5 -11t9.5 -4q7 0 11 4t4 11q0 6 -4 10t-11 4z" />
    <glyph glyph-name="AE" unicode="&#xc6;" horiz-adv-x="1660" 
d="M1019 538h615v-155h-615v-252h619v-156h-774l-1 408h-421l-229 -408h-213l860 1484l778 1v-155h-619v-767zM862 538v558l-330 -558h330z" />
    <glyph glyph-name="Ccedilla" unicode="&#xc7;" horiz-adv-x="1545" 
d="M712 -34q-277 5 -492 219q-220 222 -220 534q0 311 220 533q222 220 534 220q261 0 465 -161q202 -159 273 -437h-168q-61 201 -215 318q-157 118 -355 118q-246 0 -419 -173t-173 -418q0 -246 173 -419t419 -173q194 0 349 114q153 112 218 308h168q-76 -273 -276 -427
q-165 -128 -345 -149v-9q67 -13 124 -67q60 -57 60 -132q0 -88 -82 -150q-79 -59 -189 -59q-23 0 -69 6v151h31q53 0 86 18.5t33 36.5t-33 36.5t-86 18.5h-31v143z" />
    <glyph glyph-name="Egrave" unicode="&#xc8;" horiz-adv-x="1204" 
d="M155 1305v-767h989v-155h-989v-253h989v-155h-1039v0h-105v1487h155v-2h989v-155h-989zM395 1780h179l184 -306h-171z" />
    <glyph glyph-name="Eacute" unicode="&#xc9;" horiz-adv-x="1204" 
d="M155 1305v-767h989v-155h-989v-253h989v-155h-1039v0h-105v1487l1141 2l3 -159h-989zM607 1484h-171l184 306h179z" />
    <glyph glyph-name="Ecircumflex" unicode="&#xca;" horiz-adv-x="1204" 
d="M155 1305v-767h989v-155h-989v-253h989v-155h-1039v0h-105v1487h155v-2h989v-155h-989zM426 1495l202 321l202 -321h-162l-39 71l-42 -71h-161z" />
    <glyph glyph-name="Edieresis" unicode="&#xcb;" horiz-adv-x="1204" 
d="M155 1305v-767h989v-155h-989v-253h989v-155h-1039v0h-105v1487h155v-2h989v-155h-989zM565 1685q34 -34 34 -82q0 -47 -34 -81t-81 -34q-48 0 -82 34t-34 81q0 48 34 82t82 34q47 0 81 -34zM822 1685q34 -34 34 -82q0 -47 -34 -81t-81 -34q-48 0 -82 34t-34 81
q0 48 34 82t82 34q47 0 81 -34z" />
    <glyph glyph-name="Igrave" unicode="&#xcc;" horiz-adv-x="384" 
d="M338 -25h-155v1484h155v-1484zM-10 1798h179l184 -306h-171z" />
    <glyph glyph-name="Iacute" unicode="&#xcd;" horiz-adv-x="384" 
d="M178 -25h-155v1484h155v-1484zM181 1492h-171l184 306h179z" />
    <glyph glyph-name="Icircumflex" unicode="&#xce;" horiz-adv-x="423" 
d="M279 -25h-155v1484h155v-1484zM0 1495l202 321l201 -321h-160l-40 72l-42 -72h-161z" />
    <glyph glyph-name="Idieresis" unicode="&#xcf;" horiz-adv-x="548" 
d="M318 -25h-155v1484h155v-1484zM197 1695q34 -34 34 -82q0 -47 -34 -81t-81 -34q-48 0 -82 34t-34 81q0 48 34 82t82 34q47 0 81 -34zM454 1695q34 -34 34 -82q0 -47 -34 -81t-81 -34q-48 0 -82 34t-34 81q0 48 34 82t82 34q47 0 81 -34z" />
    <glyph glyph-name="Eth" unicode="&#xd0;" horiz-adv-x="1632" 
d="M519 813v-152h-175v-527h424q320 0 488 157q158 148 158 425q0 278 -158 426q-117 109 -311 143q-102 19 -176 13h-425v-485h175zM190 813v644h214l359 -1q142 0 233 -17q220 -44 367 -182q209 -194 209 -541t-209 -541q-147 -137 -378 -182q-121 -23 -223 -17h-573v685
h-189v152h190z" />
    <glyph glyph-name="Ntilde" unicode="&#xd1;" horiz-adv-x="1406" 
d="M1346 1458v-1483h-36l-112 110l-1043 1035v-1145h-155v1518l148 -147l1043 -1035v1147h155zM358 1534q97 179 233 179q105 0 183 -85q40 -43 86 -43q41 5 70 42h161q-96 -179 -232 -179q-106 0 -184 86q-41 42 -86 42q-43 -1 -53 -42h-178z" />
    <glyph glyph-name="Ograve" unicode="&#xd2;" horiz-adv-x="1594" 
d="M767 117q250 0 426 177q177 176 177 426t-177 426q-176 177 -426 177t-426 -177q-177 -176 -177 -426t177 -426q176 -177 426 -177zM767 1487q317 0 543 -224q224 -226 224 -543t-224 -543q-226 -224 -543 -224t-543 224q-224 226 -224 543t224 543q226 224 543 224z
M525 1761h179l151 -252h-171z" />
    <glyph glyph-name="Oacute" unicode="&#xd3;" horiz-adv-x="1594" 
d="M767 117q250 0 426 177q177 176 177 426t-177 426q-176 177 -426 177t-426 -177q-177 -176 -177 -426t177 -426q176 -177 426 -177zM767 1487q317 0 543 -224q224 -226 224 -543t-224 -543q-226 -224 -543 -224t-543 224q-224 226 -224 543t224 543q226 224 543 224z
M839 1509h-171l151 252h179z" />
    <glyph glyph-name="Ocircumflex" unicode="&#xd4;" horiz-adv-x="1594" 
d="M767 117q250 0 426 177q177 176 177 426t-177 426q-176 177 -426 177t-426 -177q-177 -176 -177 -426t177 -426q176 -177 426 -177zM767 1487q317 0 543 -224q224 -226 224 -543t-224 -543q-226 -224 -543 -224t-543 224q-224 226 -224 543t224 543q226 224 543 224z
M582 1518l187 298l188 -298h-152l-35 63l-37 -63h-151z" />
    <glyph glyph-name="Otilde" unicode="&#xd5;" horiz-adv-x="1594" 
d="M767 117q250 0 426 177q177 176 177 426t-177 426q-176 177 -426 177t-426 -177q-177 -176 -177 -426t177 -426q176 -177 426 -177zM767 1487q317 0 543 -224q224 -226 224 -543t-224 -543q-226 -224 -543 -224t-543 224q-224 226 -224 543t224 543q226 224 543 224z
M408 1594q97 179 233 179q105 0 183 -85q40 -43 86 -43q41 5 70 42h161q-96 -179 -232 -179q-106 0 -184 86q-41 42 -86 42q-43 -1 -53 -42h-178z" />
    <glyph glyph-name="Odieresis" unicode="&#xd6;" horiz-adv-x="1594" 
d="M767 117q250 0 426 177q177 176 177 426t-177 426q-176 177 -426 177t-426 -177q-177 -176 -177 -426t177 -426q176 -177 426 -177zM767 1487q317 0 543 -224q224 -226 224 -543t-224 -543q-226 -224 -543 -224t-543 224q-224 226 -224 543t224 543q226 224 543 224z
M735 1705q34 -34 34 -82q0 -47 -34 -81t-81 -34q-48 0 -82 34t-34 81q0 48 34 82t82 34q47 0 81 -34zM992 1705q34 -34 34 -82q0 -47 -34 -81t-81 -34q-48 0 -82 34t-34 81q0 48 34 82t82 34q47 0 81 -34z" />
    <glyph glyph-name="multiply" unicode="&#xd7;" horiz-adv-x="731" 
d="M345 716l238 238l109 -108l-238 -237l238 -238l-109 -108l-238 238l-237 -238l-108 108l238 238l-238 237l108 108z" />
    <glyph glyph-name="Oslash" unicode="&#xd8;" horiz-adv-x="1594" 
d="M767 1487q317 0 543 -224q224 -226 224 -543t-224 -543q-226 -224 -543 -224t-543 224q-224 226 -224 543t224 543q226 224 543 224zM398 -132h-178l890 1711h178zM767 117q250 0 426 177q177 176 177 426t-177 426q-176 177 -426 177t-426 -177q-177 -176 -177 -426
t177 -426q176 -177 426 -177z" />
    <glyph glyph-name="Ugrave" unicode="&#xd9;" horiz-adv-x="1412" 
d="M445 1730h179l184 -306h-171zM1358 731q-4 -314 -201 -536q-199 -223 -478 -223q-280 0 -479 224q-197 222 -200 537v727h151v-727q3 -248 158 -423q154 -174 370 -174t369 173q155 174 159 422v0v729h151v-729z" />
    <glyph glyph-name="Uacute" unicode="&#xda;" horiz-adv-x="1412" 
d="M687 1424h-171l184 306h179zM1358 731q-4 -314 -201 -536q-199 -223 -478 -223q-280 0 -479 224q-197 222 -200 537v727h151v-727q3 -248 158 -423q154 -174 370 -174t369 173q155 174 159 422v0v729h151v-729z" />
    <glyph glyph-name="Ucircumflex" unicode="&#xdb;" horiz-adv-x="1412" 
d="M486 1435l202 321l202 -321h-162l-39 71l-42 -71h-161zM1358 731q-4 -314 -201 -536q-199 -223 -478 -223q-280 0 -479 224q-197 222 -200 537v727h151v-727q3 -248 158 -423q154 -174 370 -174t369 173q155 174 159 422v0v729h151v-729z" />
    <glyph glyph-name="Udieresis" unicode="&#xdc;" horiz-adv-x="1412" 
d="M645 1655q34 -34 34 -82q0 -47 -34 -81t-81 -34q-48 0 -82 34t-34 81q0 48 34 82t82 34q47 0 81 -34zM902 1655q34 -34 34 -82q0 -47 -34 -81t-81 -34q-48 0 -82 34t-34 81q0 48 34 82t82 34q47 0 81 -34zM1358 731q-4 -314 -201 -536q-199 -223 -478 -223
q-280 0 -479 224q-197 222 -200 537v727h151v-727q3 -248 158 -423q154 -174 370 -174t369 173q155 174 159 422v0v729h151v-729z" />
    <glyph glyph-name="Yacute" unicode="&#xdd;" horiz-adv-x="1248" 
d="M533 444l-533 1015h172l438 -845l440 845h171l-533 -1015v-469h-155v469zM663 1424h-171l184 306h180z" />
    <glyph glyph-name="Thorn" unicode="&#xde;" horiz-adv-x="1105" 
d="M156 1094v-779h323q108 1 211 52q196 97 196 338t-195 338q-104 51 -212 51h-323zM150 1248h329q141 0 283 -70q283 -137 283 -473q0 -337 -283 -474q-142 -69 -283 -69h-323v-187h-155v2h-1v1483h150v-212z" />
    <glyph glyph-name="germandbls" unicode="&#xdf;" horiz-adv-x="1105" 
d="M550 1473q236 3 382 -140q113 -113 113 -291q0 -106 -93 -188q-51 -44 -164.5 -92t-6 -89.5t160.5 -82.5q97 -76 97 -187q0 -145 -93 -272q-122 -166 -340 -166q-204 0 -318 87q-118 90 -118 277h154q0 -128 88 -174q70 -37 194 -37q149 0 224 114q56 82 56 171
q0 38 -44 70q-35 26 -131 66q-84 35 -117 59q-59 43 -59 105q0 65 60 114q33 27 122 71q95 49 131 78q44 37 44 76q0 114 -68 181q-60 60 -171 85q-58 12 -102 11q-243 0 -344 -134q-51 -68 -54 -137v-1075h-153v1076q2 108 75 215q142 209 475 209z" />
    <glyph glyph-name="agrave" unicode="&#xe0;" horiz-adv-x="1615" 
d="M762 112q252 0 430 178t178 430t-178 430t-430 178t-430 -178t-178 -430t178 -430t430 -178zM1375 257q-2 -3 -74 -76q-224 -223 -539 -223t-539 223q-223 224 -223 539t223 539q224 223 539 223t539 -223q223 -224 223 -539v-743h-149v280zM493 1959h178l271 -459h-171z
" />
    <glyph glyph-name="aacute" unicode="&#xe1;" horiz-adv-x="1615" 
d="M762 112q252 0 430 178t178 430t-178 430t-430 178t-430 -178t-178 -430t178 -430t430 -178zM1375 257q-2 -3 -74 -76q-224 -223 -539 -223t-539 223q-223 224 -223 539t223 539q224 223 539 223t539 -223q223 -224 223 -539v-743h-149v280zM784 1500h-171l271 459h178z
" />
    <glyph glyph-name="acircumflex" unicode="&#xe2;" horiz-adv-x="1615" 
d="M762 112q252 0 430 178t178 430t-178 430t-430 178t-430 -178t-178 -430t178 -430t430 -178zM1375 257q-2 -3 -74 -76q-224 -223 -539 -223t-539 223q-223 224 -223 539t223 539q224 223 539 223t539 -223q223 -224 223 -539v-743h-149v280zM576 1475l202 321l201 -321
h-161l-40 72l-42 -72h-160z" />
    <glyph glyph-name="atilde" unicode="&#xe3;" horiz-adv-x="1615" 
d="M762 112q252 0 430 178t178 430t-178 430t-430 178t-430 -178t-178 -430t178 -430t430 -178zM1375 257q-2 -3 -74 -76q-224 -223 -539 -223t-539 223q-223 224 -223 539t223 539q224 223 539 223t539 -223q223 -224 223 -539v-743h-149v280zM411 1584q97 179 233 179
q105 0 183 -85q40 -43 86 -43q41 5 70 42h161q-96 -179 -232 -179q-106 0 -184 86q-41 42 -86 42q-43 -1 -53 -42h-178z" />
    <glyph glyph-name="adieresis" unicode="&#xe4;" horiz-adv-x="1615" 
d="M762 112q252 0 430 178t178 430t-178 430t-430 178t-430 -178t-178 -430t178 -430t430 -178zM1375 257q-2 -3 -74 -76q-224 -223 -539 -223t-539 223q-223 224 -223 539t223 539q224 223 539 223t539 -223q223 -224 223 -539v-743h-149v280zM731 1695q34 -34 34 -82
q0 -47 -34 -81t-81 -34q-48 0 -82 34t-34 81q0 48 34 82t82 34q47 0 81 -34zM988 1695q34 -34 34 -82q0 -47 -34 -81t-81 -34q-48 0 -82 34t-34 81q0 48 34 82t82 34q47 0 81 -34z" />
    <glyph glyph-name="aring" unicode="&#xe5;" horiz-adv-x="1615" 
d="M762 112q252 0 430 178t178 430t-178 430t-430 178t-430 -178t-178 -430t178 -430t430 -178zM1375 257q-2 -3 -74 -76q-224 -223 -539 -223t-539 223q-223 224 -223 539t223 539q224 223 539 223t539 -223q223 -224 223 -539v-743h-149v280zM875 1705q41 -41 41 -98
t-41 -97.5t-98 -40.5t-97.5 40.5t-40.5 97.5t40.5 98t97.5 41t98 -41zM777 1624q-6 0 -10 -4t-4 -10q0 -7 4 -11t10 -4q7 0 11 4t4 11q0 6 -4 10t-11 4z" />
    <glyph glyph-name="ae" unicode="&#xe6;" horiz-adv-x="2928" 
d="M2645 1029q-43 85 -156 171q-159 119 -359 119q-248 0 -423 -175q-71 -70 -94 -115h1032zM767 117q250 0 426 177q177 176 177 426t-177 426q-176 177 -426 177t-426 -177q-177 -176 -177 -426t177 -426q176 -177 426 -177zM1378 246q-1 -2 -68 -69q-226 -224 -543 -224
t-543 224q-224 226 -224 543t224 543q226 224 543 224t543 -224q108 -110 141 -187q33 76 140 184q224 222 539 222q264 0 470 -163q203 -160 275 -440h-175v1h-1148q-15 -48 -19 -120q1 -19 1 -40q0 -20 -1 -38q12 -222 174 -383q175 -175 423 -175q196 0 353 115
q154 113 220 311h169q-77 -275 -279 -431q-203 -158 -463 -158q-315 0 -539 222q-62 62 -60 60v-268h-153v271z" />
    <glyph glyph-name="ccedilla" unicode="&#xe7;" horiz-adv-x="1545" 
d="M712 -34q-277 5 -492 219q-220 222 -220 534q0 311 220 533q222 220 534 220q261 0 465 -161q202 -159 273 -437h-168q-61 201 -215 318q-157 118 -355 118q-246 0 -419 -173t-173 -418q0 -246 173 -419t419 -173q194 0 349 114q153 112 218 308h168q-76 -273 -276 -427
q-165 -128 -345 -149v-9q67 -13 124 -67q60 -57 60 -132q0 -88 -82 -150q-79 -59 -189 -59q-23 0 -69 6v151h31q53 0 86 18.5t33 36.5t-33 36.5t-86 18.5h-31v143z" />
    <glyph glyph-name="egrave" unicode="&#xe8;" horiz-adv-x="1581" 
d="M193 909q-38 -96 -38 -190q7 -245 180 -419q174 -173 419 -179q193 6 349 120q153 112 218 308h168q-76 -273 -276 -427q-202 -157 -459 -157q-312 0 -534 220q-220 222 -220 534q0 311 220 533q222 220 534 220q261 0 465 -161q202 -159 265 -401zM1244 1057
q-39 73 -148 152q-152 108 -342 108q-237 0 -405 -159q-67 -63 -87 -101h982zM456 1959h178l271 -459h-171z" />
    <glyph glyph-name="eacute" unicode="&#xe9;" horiz-adv-x="1581" 
d="M193 909q-38 -96 -38 -190q7 -245 180 -419q174 -173 419 -179q193 6 349 120q153 112 218 308h168q-76 -273 -276 -427q-202 -157 -459 -157q-312 0 -534 220q-220 222 -220 534q0 311 220 533q222 220 534 220q261 0 465 -161q202 -159 265 -401zM1244 1057
q-39 73 -148 152q-152 108 -342 108q-237 0 -405 -159q-67 -63 -87 -101h982zM747 1500h-171l271 459h178z" />
    <glyph glyph-name="ecircumflex" unicode="&#xea;" horiz-adv-x="1581" 
d="M193 909q-38 -96 -38 -190q7 -245 180 -419q174 -173 419 -179q193 6 349 120q153 112 218 308h168q-76 -273 -276 -427q-202 -157 -459 -157q-312 0 -534 220q-220 222 -220 534q0 311 220 533q222 220 534 220q261 0 465 -161q202 -159 265 -401zM1244 1057
q-39 73 -148 152q-152 108 -342 108q-237 0 -405 -159q-67 -63 -87 -101h982zM539 1475l202 321l201 -321h-161l-40 72l-42 -72h-160z" />
    <glyph glyph-name="edieresis" unicode="&#xeb;" horiz-adv-x="1581" 
d="M193 909q-38 -96 -38 -190q7 -245 180 -419q174 -173 419 -179q193 6 349 120q153 112 218 308h168q-76 -273 -276 -427q-202 -157 -459 -157q-312 0 -534 220q-220 222 -220 534q0 311 220 533q222 220 534 220q261 0 465 -161q202 -159 265 -401zM1244 1057
q-39 73 -148 152q-152 108 -342 108q-237 0 -405 -159q-67 -63 -87 -101h982zM694 1685q34 -34 34 -82q0 -47 -34 -81t-81 -34q-48 0 -82 34t-34 81q0 48 34 82t82 34q47 0 81 -34zM951 1685q34 -34 34 -82q0 -47 -34 -81t-81 -34q-48 0 -82 34t-34 81q0 48 34 82t82 34
q47 0 81 -34z" />
    <glyph glyph-name="igrave" unicode="&#xec;" horiz-adv-x="384" 
d="M338 -25h-155v1484h155v-1484zM0 1798h179l184 -306h-171z" />
    <glyph glyph-name="iacute" unicode="&#xed;" horiz-adv-x="215" 
d="M172 -25h-155v1484h155v-1484zM181 1500h-171l190 299h179z" />
    <glyph glyph-name="icircumflex" unicode="&#xee;" horiz-adv-x="340" 
d="M279 -25h-155v1484h155v-1484zM0 1495l202 321l201 -321h-160l-40 72l-42 -72h-161z" />
    <glyph glyph-name="idieresis" unicode="&#xef;" horiz-adv-x="395" 
d="M317 -25h-155v1484h155v-1484zM197 1695q34 -34 34 -82q0 -47 -34 -81t-81 -34q-48 0 -82 34t-34 81q0 48 34 82t82 34q47 0 81 -34zM454 1695q34 -34 34 -82q0 -47 -34 -81t-81 -34q-48 0 -82 34t-34 81q0 48 34 82t82 34q47 0 81 -34z" />
    <glyph glyph-name="eth" unicode="&#xf0;" horiz-adv-x="1603" 
d="M1342 596q49 241 -86 446q-136 206 -376 255q-241 48 -446 -87t-254 -376t86 -446q136 -205 377 -255q240 -48 446 87q204 136 253 376zM1276 1272q143 -132 205 -318q64 -191 24 -391q-63 -307 -326 -481q-261 -174 -569 -110q-309 63 -481 324q-174 263 -111 571
q57 278 282 451q224 170 383 162q-20 10 -133 46l-20 -83l-139 34l21 90q-27 8 -102 24l35 158q75 -18 105 -26l24 98l141 -34l-26 -104q441 -140 687 -411z" />
    <glyph glyph-name="ntilde" unicode="&#xf1;" horiz-adv-x="1443" 
d="M0 718v0q4 320 204 546q203 227 487 227q285 0 488 -228q201 -226 204 -547v-741h-147v716h-1q-2 280 -163 460q-158 179 -381 179q-222 0 -380 -178q-160 -180 -163 -434v-743h-148v743zM318 1594q97 179 233 179q105 0 183 -85q40 -43 86 -43q41 5 70 42h161
q-96 -179 -232 -179q-106 0 -184 86q-41 42 -86 42q-43 -1 -53 -42h-178z" />
    <glyph glyph-name="ograve" unicode="&#xf2;" horiz-adv-x="1584" 
d="M762 112q252 0 430 178t178 430t-178 430t-430 178t-430 -178t-178 -430t178 -430t430 -178zM762 1482q315 0 539 -223q223 -224 223 -539t-223 -539q-224 -223 -539 -223t-539 223q-223 224 -223 539t223 539q224 223 539 223zM477 1959h178l271 -459h-171z" />
    <glyph glyph-name="oacute" unicode="&#xf3;" horiz-adv-x="1584" 
d="M762 112q252 0 430 178t178 430t-178 430t-430 178t-430 -178t-178 -430t178 -430t430 -178zM762 1482q315 0 539 -223q223 -224 223 -539t-223 -539q-224 -223 -539 -223t-539 223q-223 224 -223 539t223 539q224 223 539 223zM769 1500h-171l271 459h178z" />
    <glyph glyph-name="ocircumflex" unicode="&#xf4;" horiz-adv-x="1584" 
d="M762 112q252 0 430 178t178 430t-178 430t-430 178t-430 -178t-178 -430t178 -430t430 -178zM762 1482q315 0 539 -223q223 -224 223 -539t-223 -539q-224 -223 -539 -223t-539 223q-223 224 -223 539t223 539q224 223 539 223zM561 1495l202 321l201 -321h-161l-40 72
l-42 -72h-160z" />
    <glyph glyph-name="otilde" unicode="&#xf5;" horiz-adv-x="1584" 
d="M762 112q252 0 430 178t178 430t-178 430t-430 178t-430 -178t-178 -430t178 -430t430 -178zM762 1482q315 0 539 -223q223 -224 223 -539t-223 -539q-224 -223 -539 -223t-539 223q-223 224 -223 539t223 539q224 223 539 223zM396 1564q97 179 233 179q105 0 183 -85
q40 -43 86 -43q41 5 70 42h161q-96 -179 -232 -179q-106 0 -184 86q-41 42 -86 42q-43 -1 -53 -42h-178z" />
    <glyph glyph-name="odieresis" unicode="&#xf6;" horiz-adv-x="1584" 
d="M762 112q252 0 430 178t178 430t-178 430t-430 178t-430 -178t-178 -430t178 -430t430 -178zM762 1482q315 0 539 -223q223 -224 223 -539t-223 -539q-224 -223 -539 -223t-539 223q-223 224 -223 539t223 539q224 223 539 223zM715 1675q34 -34 34 -82q0 -47 -34 -81
t-81 -34q-48 0 -82 34t-34 81q0 48 34 82t82 34q47 0 81 -34zM972 1675q34 -34 34 -82q0 -47 -34 -81t-81 -34q-48 0 -82 34t-34 81q0 48 34 82t82 34q47 0 81 -34z" />
    <glyph glyph-name="divide" unicode="&#xf7;" horiz-adv-x="885" 
d="M825 532h-825v153h825v-153zM502 886q34 -34 34 -82q0 -47 -34 -81t-81 -34q-48 0 -82 34t-34 81q0 48 34 82t82 34q47 0 81 -34zM505 490q34 -34 34 -82q0 -47 -34 -81t-81 -34q-48 0 -82 34t-34 81q0 48 34 82t82 34q47 0 81 -34z" />
    <glyph glyph-name="oslash" unicode="&#xf8;" horiz-adv-x="1594" 
d="M767 1487q317 0 543 -224q224 -226 224 -543t-224 -543q-226 -224 -543 -224t-543 224q-224 226 -224 543t224 543q226 224 543 224zM398 -132h-178l890 1711h178zM767 117q250 0 426 177q177 176 177 426t-177 426q-176 177 -426 177t-426 -177q-177 -176 -177 -426
t177 -426q176 -177 426 -177z" />
    <glyph glyph-name="ugrave" unicode="&#xf9;" horiz-adv-x="1418" 
d="M1358 731q-4 -314 -201 -536q-199 -223 -478 -223q-280 0 -479 224q-197 222 -200 537v727h151v-727q3 -248 158 -423q154 -174 370 -174t369 173q155 174 159 422v0v729h151v-729zM380 1959h178l271 -459h-171z" />
    <glyph glyph-name="uacute" unicode="&#xfa;" horiz-adv-x="1418" 
d="M1358 731q-4 -314 -201 -536q-199 -223 -478 -223q-280 0 -479 224q-197 222 -200 537v727h151v-727q3 -248 158 -423q154 -174 370 -174t369 173q155 174 159 422v0v729h151v-729zM700 1500h-171l271 459h178z" />
    <glyph glyph-name="ucircumflex" unicode="&#xfb;" horiz-adv-x="1412" 
d="M1358 731q-4 -314 -201 -536q-199 -223 -478 -223q-280 0 -479 224q-197 222 -200 537v727h151v-727q3 -248 158 -423q154 -174 370 -174t369 173q155 174 159 422v0v729h151v-729zM478 1475l202 321l201 -321h-161l-40 72l-42 -72h-160z" />
    <glyph glyph-name="udieresis" unicode="&#xfc;" horiz-adv-x="1418" 
d="M1358 731q-4 -314 -201 -536q-199 -223 -478 -223q-280 0 -479 224q-197 222 -200 537v727h151v-727q3 -248 158 -423q154 -174 370 -174t369 173q155 174 159 422v0v729h151v-729zM632 1655q34 -34 34 -82q0 -47 -34 -81t-81 -34q-48 0 -82 34t-34 81q0 48 34 82t82 34
q47 0 81 -34zM889 1655q34 -34 34 -82q0 -47 -34 -81t-81 -34q-48 0 -82 34t-34 81q0 48 34 82t82 34q47 0 81 -34z" />
    <glyph glyph-name="yacute" unicode="&#xfd;" horiz-adv-x="1248" 
d="M533 444l-533 1015h172l438 -845l440 845h171l-533 -1015v-469h-155v469zM663 1424h-171l184 306h180z" />
    <glyph glyph-name="thorn" unicode="&#xfe;" horiz-adv-x="1104" 
d="M478 1458q141 0 283 -70q283 -137 283 -473q0 -337 -283 -474q-142 -69 -283 -69h-323v-397h-155v1483h478zM155 1304v-779h323q108 1 211 52q196 97 196 338t-195 338q-104 51 -212 51h-323z" />
    <glyph glyph-name="ydieresis" unicode="&#xff;" horiz-adv-x="1437" 
d="M1346 1461l31 -4v-1201v-180q-4 -317 -204 -543q-202 -226 -484 -226q-231 0 -417 160q-185 158 -246 410l-10 39h166l5 -24q55 -185 194 -300q138 -113 308 -113q213 0 369 175t159 422l-2 180v-34q-49 -84 -200 -177q-152 -93 -326 -93q-284 0 -486 227
q-200 226 -203 544v737h159l-1 -735q-4 -215 152 -429q163 -182 379 -182q205 0 367 162q154 172 159 407v778h131zM645 1655q34 -34 34 -82q0 -47 -34 -81t-81 -34q-48 0 -82 34t-34 81q0 48 34 82t82 34q47 0 81 -34zM902 1655q34 -34 34 -82q0 -47 -34 -81t-81 -34
q-48 0 -82 34t-34 81q0 48 34 82t82 34q47 0 81 -34z" />
    <glyph glyph-name="dotlessi" unicode="&#x131;" horiz-adv-x="215" 
d="M155 -25h-155v1484h155v-1484z" />
    <glyph glyph-name="OE" unicode="&#x152;" horiz-adv-x="1897" 
d="M751 1487v1h1086v-164h-589q-1 1 62 -61q224 -226 224 -543q0 -102 -15 -163h318v-164h-374q-49 -110 -153 -216q-62 -62 -60 -60h587v-164h-1074q-314 1 -539 224q-224 226 -224 543t224 543q226 224 543 224h-16zM767 117q250 0 426 177q177 176 177 426t-177 426
q-176 177 -426 177t-426 -177q-177 -176 -177 -426t177 -426q176 -177 426 -177z" />
    <glyph glyph-name="oe" unicode="&#x153;" horiz-adv-x="2928" 
d="M2645 1029q-43 85 -156 171q-159 119 -359 119q-248 0 -423 -175q-71 -70 -94 -115h1032zM767 117q250 0 426 177q177 176 177 426t-177 426q-176 177 -426 177t-426 -177q-177 -176 -177 -426t177 -426q176 -177 426 -177zM1451 1076q33 76 140 184q224 222 539 222
q264 0 470 -163q203 -160 275 -440h-175v1h-1148q-15 -48 -19 -120q1 -19 1 -40q0 -20 -1 -38q12 -222 174 -383q175 -175 423 -175q196 0 353 115q154 113 220 311h169q-77 -275 -279 -431q-203 -158 -463 -158q-315 0 -539 222q-106 108 -139 183q-33 -79 -142 -189
q-226 -224 -543 -224t-543 224q-224 226 -224 543t224 543q226 224 543 224t543 -224q108 -110 141 -187z" />
    <glyph glyph-name="circumflex" unicode="&#x2c6;" horiz-adv-x="423" 
d="M0 1475l202 321l201 -321h-160l-40 72l-42 -72h-161z" />
    <glyph glyph-name="caron" unicode="&#x2c7;" horiz-adv-x="423" 
d="M403 1759l-201 -322l-202 322h162l40 -71l41 71h160z" />
    <glyph glyph-name="uni02C9" unicode="&#x2c9;" horiz-adv-x="684" 
d="M624 1475h-624v153h624v-153z" />
    <glyph glyph-name="breve" unicode="&#x2d8;" horiz-adv-x="409" 
d="M202 1688h147v-29q0 -72 -51 -123t-123 -51t-123.5 51t-51.5 123v29h147q0 -36 8 -44t20 -8q11 0 19 8t8 44z" />
    <glyph glyph-name="dotaccent" unicode="&#x2d9;" horiz-adv-x="291" 
d="M197 1665q34 -34 34 -82q0 -47 -34 -81t-81 -34q-48 0 -82 34t-34 81q0 48 34 82t82 34q47 0 81 -34z" />
    <glyph glyph-name="ring" unicode="&#x2da;" horiz-adv-x="337" 
d="M236 1705q41 -41 41 -98t-41 -97.5t-98 -40.5t-97.5 40.5t-40.5 97.5t40.5 98t97.5 41t98 -41zM138 1624q-6 0 -10 -4t-4 -10q0 -7 4 -11t10 -4q7 0 11 4t4 11q0 6 -4 10t-11 4z" />
    <glyph glyph-name="ogonek" unicode="&#x2db;" horiz-adv-x="516" 
d="M151 -269q48 0 79 17.5t31 32.5q0 16 -30.5 33t-79.5 17h-31v194h149v-58q62 -12 116 -63q57 -54 57 -125q0 -85 -78 -142q-74 -56 -178 -56q-21 0 -66 6v144h31z" />
    <glyph glyph-name="tilde" unicode="&#x2dc;" horiz-adv-x="759" 
d="M0 1534q97 179 233 179q105 0 183 -85q40 -43 86 -43q41 5 70 42h161q-96 -179 -232 -179q-106 0 -184 86q-41 42 -86 42q-43 -1 -53 -42h-178z" />
    <glyph glyph-name="hungarumlaut" unicode="&#x2dd;" horiz-adv-x="554" 
d="M391 1504h-171l184 306h179zM171 1504h-171l184 306h179z" />
    <glyph glyph-name="endash" unicode="&#x2013;" 
 />
    <glyph glyph-name="emdash" unicode="&#x2014;" 
 />
    <glyph glyph-name="quoteleft" unicode="&#x2018;" horiz-adv-x="384" 
d="M0 1461h179l184 -306h-171z" />
    <glyph glyph-name="quoteright" unicode="&#x2019;" horiz-adv-x="384" 
d="M171 1155h-171l184 306h179z" />
    <glyph glyph-name="quotesinglbase" unicode="&#x201a;" horiz-adv-x="384" 
d="M171 -123h-171l184 306h179z" />
    <glyph glyph-name="quotedblleft" unicode="&#x201c;" horiz-adv-x="434" 
d="M158 966h-158v492h159zM373 966h-158v492h159z" />
    <glyph glyph-name="quotedblright" unicode="&#x201d;" horiz-adv-x="434" 
d="M158 966h-158v492h159zM373 966h-158v492h159z" />
    <glyph glyph-name="quotedblbase" unicode="&#x201e;" horiz-adv-x="434" 
d="M158 -313h-158v492h159zM373 -313h-158v492h159z" />
    <glyph glyph-name="dagger" unicode="&#x2020;" 
 />
    <glyph glyph-name="daggerdbl" unicode="&#x2021;" 
 />
    <glyph glyph-name="bullet" unicode="&#x2022;" horiz-adv-x="406" 
d="M295 880q51 -51 51 -122t-51 -122t-122 -51t-122 51t-51 122t51 122t122 51t122 -51z" />
    <glyph glyph-name="ellipsis" unicode="&#x2026;" 
 />
    <glyph glyph-name="guilsinglleft" unicode="&#x2039;" horiz-adv-x="792" 
d="M761 344l-761 394l761 395v-171q-69 -36 -272 -141q-183 -95 -159 -82q64 -33 431 -223v-172z" />
    <glyph glyph-name="guilsinglright" unicode="&#x203a;" horiz-adv-x="792" 
d="M0 516q368 190 432 223q23 -13 -160 82q-202 105 -272 141v171l761 -395l-761 -394v172z" />
    <glyph glyph-name="fraction" unicode="&#x2044;" horiz-adv-x="960" 
d="M161 -25h-161l771 1482h161z" />
    <glyph glyph-name="fraction" unicode="&#x2215;" horiz-adv-x="960" 
d="M161 -25h-161l771 1482h161z" />
    <glyph glyph-name="franc" unicode="&#x20a3;" horiz-adv-x="1379" 
d="M178 290v1167h1141v-155h-1v-2h-985v-763h986v-155h-986v-92h212v-153h-212v-162h-155v162h-178v153h178z" />
    <glyph glyph-name="lira" unicode="&#x20a4;" horiz-adv-x="1142" 
d="M79 894q-10 93 27 193q68 185 191 286q126 103 285 102q147 -1 274 -88q129 -88 175 -219q54 -157 -48 -305h-230q168 137 127 253q-28 83 -115 140q-88 59 -184 60q-107 1 -190 -70q-85 -74 -137 -214q-28 -74 -15 -138h264v-139h-197q6 -9 12 -19q19 -29 33 -52h152
v-139h-90q8 -46 -4 -84q-7 -21 -100 -191q-8 -15 -60 -149h753v-146h-959q38 220 131 380q68 117 76 136q8 24 -3 54h-247v139h162q-23 38 -40 71h-122v139h79z" />
    <glyph glyph-name="peseta" unicode="&#x20a7;" 
 />
    <glyph glyph-name="Euro" unicode="&#x20ac;" horiz-adv-x="1843" 
d="M505 503q31 -99 136 -203q174 -173 419 -173q194 0 350 114q152 112 217 308h168q-76 -273 -275 -427q-203 -157 -460 -157q-312 0 -533 220q-147 148 -191 318h-336l45 152h263q-2 18 -2 64q0 41 2 54h-308l45 152h288q43 175 194 327q221 220 533 220q261 0 466 -161
q202 -159 273 -437h-168q-61 201 -216 318q-157 118 -355 118q-245 0 -419 -173q-107 -108 -139 -212h350l-45 -152h-337q-2 -16 -2 -54q0 -44 3 -64h381l-45 -152h-302z" />
    <glyph glyph-name="afii61352" unicode="&#x2116;" 
 />
    <glyph glyph-name="trademark" unicode="&#x2122;" horiz-adv-x="1328" 
d="M582 1314h-218v-640h-147v640h-217v147h582v-147zM1268 1551v-867h-140l1 321l-192 -369l-204 371v-323h-139v867l339 -633z" />
    <glyph glyph-name="partialdiff" unicode="&#x2202;" horiz-adv-x="1328" 
 />
    <glyph glyph-name="Delta" unicode="&#x2206;" horiz-adv-x="1615" 
 />
    <glyph glyph-name="product" unicode="&#x220f;" 
 />
    <glyph glyph-name="summation" unicode="&#x2211;" horiz-adv-x="1105" 
d="M156 1094v-779h323q108 1 211 52q196 97 196 338t-195 338q-104 51 -212 51h-323zM150 1248h329q141 0 283 -70q283 -137 283 -473q0 -337 -283 -474q-142 -69 -283 -69h-323v-187h-155v2h-1v1483h150v-212z" />
    <glyph glyph-name="minus" unicode="&#x2212;" horiz-adv-x="885" 
d="M825 532h-825v153h825v-153z" />
    <glyph glyph-name="radical" unicode="&#x221a;" horiz-adv-x="1608" 
d="M1585 -25h-188l-607 1149l-602 -1149h-193l697 1328v1l98 184l92 -174z" />
    <glyph glyph-name="infinity" unicode="&#x221e;" horiz-adv-x="2017" 
d="M528 324q149 0 254 80q102 77 102 183q0 108 -102 185q-105 79 -254 79t-255 -79q-101 -77 -101 -185q0 -106 101 -183q106 -80 255 -80zM530 173q-215 0 -367 121q-156 124 -156 299q0 176 156 299q152 121 367 121t368 -121q155 -123 155 -299q0 -175 -155 -299
q-153 -121 -368 -121zM1406 324q149 0 254 80q101 77 101 183q0 108 -101 185q-105 79 -254 79q-150 0 -255 -79q-101 -77 -101 -185q0 -106 101 -183q105 -80 255 -80zM1408 173q-215 0 -368 121q-155 124 -155 299q0 176 156 299q152 121 367 121t367 -121
q156 -123 156 -299q0 -175 -156 -299q-152 -121 -367 -121z" />
    <glyph glyph-name="integral" unicode="&#x222b;" 
 />
    <glyph glyph-name="approxequal" unicode="&#x2248;" horiz-adv-x="1143" 
d="M0 689q116 215 325 215q163 0 285 -133q84 -90 187 -90q97 11 143 72l177 1q-116 -215 -325 -215q-163 0 -285 134q-86 89 -186 89q-113 -2 -130 -73h-191zM0 469q116 215 325 215q163 0 285 -133q84 -90 187 -90q97 11 143 72l177 1q-116 -215 -325 -215
q-163 0 -285 134q-86 89 -186 89q-113 -2 -130 -73h-191z" />
    <glyph glyph-name="lessequal" unicode="&#x2264;" horiz-adv-x="1584" 
d="M762 112q252 0 430 178t178 430t-178 430t-430 178t-430 -178t-178 -430t178 -430t430 -178zM1524 716q-1 -312 -223 -535q-224 -223 -539 -223t-539 223q-223 224 -223 539t223 539q224 223 539 223t539 -223q72 -73 74 -76v560h149v-1027z" />
    <glyph glyph-name="greaterequal" unicode="&#x2265;" horiz-adv-x="1204" 
d="M155 1305v-767h989v-155h-989v-253h989v-155h-1144v1487l1144 -2v-155h-989z" />
    <glyph glyph-name="uniF001" unicode="&#xf001;" horiz-adv-x="1581" 
d="M186 872q-24 -62 -24 -153q0 -246 173 -419t419 -173q194 0 349 114q153 112 218 308h168q-76 -273 -276 -427q-202 -157 -459 -157q-312 0 -534 220q-220 222 -220 534q0 311 220 533q222 220 534 220q261 0 465 -161q202 -158 283 -439h-1316zM1263 1023
q-42 84 -154 169q-157 118 -355 118q-246 0 -419 -173q-69 -70 -92 -114h1020z" />
    <glyph glyph-name="uniF001" unicode="&#xfb01;" horiz-adv-x="1581" 
d="M186 872q-24 -62 -24 -153q0 -246 173 -419t419 -173q194 0 349 114q153 112 218 308h168q-76 -273 -276 -427q-202 -157 -459 -157q-312 0 -534 220q-220 222 -220 534q0 311 220 533q222 220 534 220q261 0 465 -161q202 -158 283 -439h-1316zM1263 1023
q-42 84 -154 169q-157 118 -355 118q-246 0 -419 -173q-69 -70 -92 -114h1020z" />
    <glyph glyph-name="uniF002" unicode="&#xf002;" horiz-adv-x="1615" 
d="M1132 536l-338 643l-338 -643h676zM1213 381h-839l-213 -406h-161l716 1363v1l79 147l74 -142l719 -1369h-162z" />
    <glyph glyph-name="uniF002" unicode="&#xfb02;" horiz-adv-x="1615" 
d="M1132 536l-338 643l-338 -643h676zM1213 381h-839l-213 -406h-161l716 1363v1l79 147l74 -142l719 -1369h-162z" />
    </font>
</defs>
</svg>
